<?xml version="1.0" encoding="iso-8859-1"?>
<!-- Generator: Adobe Illustrator 19.0.0, SVG Export Plug-In . SVG Version: 6.00 Build 0)  -->
<svg version="1.1" id="Layer_1" xmlns="http://www.w3.org/2000/svg" xmlns:xlink="http://www.w3.org/1999/xlink" x="0px" y="0px"
	 viewBox="0 0 480 480" style="enable-background:new 0 0 480 480;" xml:space="preserve">
<polygon style="fill:#E9F4F6;" points="247.056,129 268.624,189.664 326.776,162.024 299.136,220.176 359.8,241.752 299.136,263.32 
	326.776,321.48 268.624,293.832 247.056,354.496 225.48,293.832 167.328,321.48 194.968,263.32 134.304,241.752 194.968,220.176 
	167.328,162.024 225.48,189.664 "/>
<g>
	<path style="fill:#92C7D3;" d="M247.048,362.496c-3.384,0-6.4-2.136-7.536-5.32l-18.608-52.312l-50.152,23.832
		c-3.072,1.456-6.696,0.824-9.088-1.568s-3.024-6.032-1.568-9.096l23.84-50.152l-52.32-18.6c-3.192-1.136-5.32-4.16-5.32-7.536
		s2.128-6.408,5.32-7.536l52.32-18.6l-23.84-50.152c-1.456-3.064-0.824-6.704,1.568-9.096c2.392-2.384,6.024-3.032,9.088-1.568
		l50.152,23.832l18.608-52.312c1.136-3.184,4.152-5.32,7.536-5.32s6.4,2.136,7.536,5.32l18.608,52.312l50.152-23.832
		c3.064-1.472,6.696-0.832,9.088,1.568c2.392,2.392,3.024,6.032,1.568,9.096l-23.84,50.152l52.32,18.6
		c3.192,1.136,5.32,4.16,5.32,7.536s-2.128,6.408-5.32,7.536l-52.32,18.6L334,318.032c1.456,3.064,0.824,6.704-1.568,9.096
		c-2.392,2.384-6.024,3.032-9.088,1.568l-50.152-23.832l-18.608,52.312C253.456,360.368,250.44,362.496,247.048,362.496z
		 M225.48,285.832c1.04,0,2.08,0.2,3.064,0.608c2.088,0.864,3.712,2.576,4.48,4.712l14.032,39.472l14.032-39.472
		c0.76-2.136,2.384-3.84,4.48-4.712c2.088-0.864,4.456-0.808,6.496,0.168l37.832,17.984l-17.984-37.832
		c-0.968-2.048-1.032-4.408-0.168-6.496s2.576-3.72,4.712-4.48l39.464-14.032l-39.464-14.032c-2.136-0.76-3.84-2.384-4.712-4.48
		s-0.808-4.456,0.168-6.496l17.984-37.832l-37.832,17.984c-2.048,0.96-4.408,1.032-6.496,0.168s-3.712-2.576-4.48-4.712
		l-14.032-39.472l-14.032,39.472c-0.76,2.136-2.384,3.84-4.48,4.712s-4.456,0.808-6.496-0.168l-37.832-17.984l17.992,37.832
		c0.968,2.048,1.032,4.408,0.168,6.496s-2.576,3.72-4.712,4.48l-39.472,14.032l39.472,14.032c2.136,0.76,3.84,2.384,4.712,4.48
		s0.808,4.456-0.168,6.496l-17.992,37.832l37.832-17.984C223.128,286.096,224.304,285.832,225.48,285.832z"/>
	<path style="fill:#92C7D3;" d="M280.16,89.872L256,115.72V75.152L291.84,36.8c3.016-3.224,2.848-8.288-0.384-11.304
		c-3.224-3.024-8.296-2.848-11.304,0.384L256,51.72V8c0-4.424-3.584-8-8-8s-8,3.576-8,8v44.688L212.992,25.68
		c-3.128-3.128-8.184-3.128-11.312,0s-3.128,8.184,0,11.312L240,75.312v41.376L212.992,89.68c-3.128-3.128-8.184-3.128-11.312,0
		s-3.128,8.184,0,11.312l40.664,40.664l0.008,0.008l5.848,5.848l43.64-46.712c3.016-3.224,2.848-8.288-0.384-11.304
		C288.232,86.472,283.168,86.648,280.16,89.872z"/>
	<path style="fill:#92C7D3;" d="M256,404.848V364.28l24.16,25.848c1.576,1.688,3.704,2.536,5.84,2.536c1.96,0,3.92-0.712,5.464-2.16
		c3.232-3.016,3.4-8.08,0.384-11.304L248.2,332.488l-5.848,5.848l-0.008,0.008l-40.664,40.664c-3.128,3.128-3.128,8.184,0,11.312
		s8.184,3.128,11.312,0L240,363.312v41.376l-38.328,38.32c-3.128,3.128-3.128,8.184,0,11.312s8.184,3.128,11.312,0L240,427.312V472
		c0,4.424,3.584,8,8,8s8-3.576,8-8v-43.72l24.16,25.848c1.576,1.688,3.704,2.536,5.84,2.536c1.96,0,3.92-0.712,5.464-2.16
		c3.232-3.016,3.4-8.08,0.384-11.304L256,404.848z"/>
	<path style="fill:#92C7D3;" d="M472,232h-44.688l25.672-25.68c3.128-3.128,3.128-8.184,0-11.312s-8.184-3.128-11.312,0L404.688,232
		h-41.376l25.672-25.68c3.128-3.128,3.128-8.184,0-11.312s-8.184-3.128-11.312,0l-39.32,39.32c-0.008,0.008-0.016,0.016-0.024,0.024
		l-7.176,7.176l46.712,43.648c1.544,1.448,3.504,2.16,5.464,2.16c2.136,0,4.272-0.848,5.84-2.536
		c3.016-3.224,2.848-8.288-0.384-11.304L361.512,248h40.568l39.792,37.176c1.544,1.448,3.504,2.16,5.464,2.16
		c2.136,0,4.272-0.848,5.84-2.536c3.016-3.224,2.848-8.288-0.384-11.304L425.512,248H472c4.416,0,8-3.576,8-8S476.416,232,472,232z"
		/>
	<path style="fill:#92C7D3;" d="M143.84,239.192c-0.392-3.744-3.288-6.632-7.032-7.032l-37.152-37.152
		c-3.128-3.128-8.184-3.128-11.312,0s-3.128,8.184,0,11.312l25.68,25.68H72.648l-36.992-36.992c-3.128-3.128-8.184-3.128-11.312,0
		s-3.128,8.184,0,11.312L50.024,232H8c-4.416,0-8,3.576-8,8c0,4.424,3.584,8,8,8h43.816l-27.28,25.496
		c-3.232,3.016-3.4,8.08-0.384,11.304c1.576,1.688,3.704,2.536,5.84,2.536c1.96,0,3.92-0.712,5.464-2.16L75.256,248h40.568
		l-27.28,25.496c-3.232,3.016-3.4,8.08-0.384,11.304c1.576,1.688,3.704,2.536,5.84,2.536c1.96,0,3.92-0.712,5.464-2.16
		l46.712-43.648L143.84,239.192z"/>
	<path style="fill:#92C7D3;" d="M423.24,112.424l-38.184,1.84l32.648-32.648c3.128-3.128,3.128-8.184,0-11.312
		s-8.184-3.128-11.312,0L376,100.688V64c0-4.424-3.584-8-8-8s-8,3.576-8,8v52.688l-32,32V112c0-4.424-3.584-8-8-8s-8,3.576-8,8
		v64.528l63.816-1.488c4.416-0.104,7.912-3.768,7.808-8.184c-0.104-4.416-3.768-8.024-8.184-7.816l-36.016,0.84l28.792-28.792
		l55.792-2.688c4.408-0.208,7.816-3.96,7.608-8.376C431.4,115.616,427.56,112.176,423.24,112.424z"/>
	<path style="fill:#92C7D3;" d="M184,313.488L182.512,304H120c-4.416,0-8,3.576-8,8s3.584,8,8,8h36.688l-32,32H72
		c-4.416,0-8,3.576-8,8s3.584,8,8,8h36.688l-30.392,30.392c-3.128,3.128-3.128,8.184,0,11.312c1.56,1.56,3.608,2.344,5.656,2.344
		s4.096-0.784,5.656-2.344l31.008-31.008l-1.144,36.872c-0.136,4.408,3.336,8.432,7.752,8.432c0.088,0,0.168,0,0.256,0
		c4.304,0,7.856-3.608,7.992-7.936l1.672-53.8l29.184-29.232l-0.224,34.744c-0.032,4.424,3.528,8.224,7.944,8.224
		c0.016,0,0.032,0,0.048,0c4.392,0,8.744-3.736,8.776-8.136L184,313.592C184,313.56,184,313.52,184,313.488z"/>
	<path style="fill:#92C7D3;" d="M424,352h-52.688l-32-32H376c4.416,0,8-3.576,8-8s-3.584-8-8-8h-64.536l1.504,64
		c0.104,4.352,3.664,8,7.992,8c0.064,0,0.128,0,0.192,0c4.416,0,7.912-3.96,7.808-8.376l-0.84-36.104l28.8,28.752l2.68,55.952
		c0.2,4.272,3.736,7.776,7.976,7.776c0.136,0,0.264,0,0.392,0c4.416,0,7.824-4.152,7.608-8.568l-1.84-38.288l32.648,32.6
		c1.56,1.56,3.608,2.32,5.656,2.32s4.096-0.792,5.656-2.352c3.128-3.128,3.128-8.192,0-11.32L387.312,368H424c4.416,0,8-3.576,8-8
		S428.416,352,424,352z"/>
	<path style="fill:#92C7D3;" d="M184,112c0-4.424-3.584-8-8-8s-8,3.576-8,8v36.688l-32-32V64c0-4.424-3.584-8-8-8s-8,3.576-8,8
		v36.688L89.608,70.296c-3.128-3.128-8.184-3.128-11.312,0s-3.128,8.184,0,11.312l31.008,31.008l-36.68-1.144
		c-4.776-0.064-8.112,3.336-8.248,7.752s3.336,8.112,7.744,8.248l53.704,1.664l29.184,29.184l-34.584-0.224
		c-4.504-0.008-8.024,3.528-8.048,7.944c-0.024,4.424,3.528,8.8,7.952,8.832L174.424,176c0.016,0,0.024,0,0.04,0
		c0.016,0,0.024,0,0.04,0l9.496-1.488V112z"/>
	<path style="fill:#92C7D3;" d="M272,232h-4.688l2.344-2.344c3.128-3.128,3.128-8.184,0-11.312s-8.184-3.128-11.312,0L256,220.688
		V216c0-4.424-3.584-8-8-8s-8,3.576-8,8v4.688l-2.344-2.344c-3.128-3.128-8.184-3.128-11.312,0s-3.128,8.184,0,11.312l2.344,2.344
		H224c-4.416,0-8,3.576-8,8c0,4.424,3.584,8,8,8h4.688l-2.344,2.344c-3.128,3.128-3.128,8.184,0,11.312
		c1.56,1.56,3.608,2.344,5.656,2.344s4.096-0.784,5.656-2.344l2.344-2.344V264c0,4.424,3.584,8,8,8s8-3.576,8-8v-4.688l2.344,2.344
		c1.56,1.56,3.608,2.344,5.656,2.344s4.096-0.784,5.656-2.344c3.128-3.128,3.128-8.184,0-11.312L267.312,248H272
		c4.416,0,8-3.576,8-8S276.416,232,272,232z"/>
</g>
<g>
</g>
<g>
</g>
<g>
</g>
<g>
</g>
<g>
</g>
<g>
</g>
<g>
</g>
<g>
</g>
<g>
</g>
<g>
</g>
<g>
</g>
<g>
</g>
<g>
</g>
<g>
</g>
<g>
</g>
</svg>
