<?xml version="1.0" encoding="iso-8859-1"?>
<!-- Generator: Adobe Illustrator 19.0.0, SVG Export Plug-In . SVG Version: 6.00 Build 0)  -->
<svg version="1.1" id="Layer_1" xmlns="http://www.w3.org/2000/svg" xmlns:xlink="http://www.w3.org/1999/xlink" x="0px" y="0px"
	 viewBox="0 0 480.024 480.024" style="enable-background:new 0 0 480.024 480.024;" xml:space="preserve">
<circle style="fill:#FCE674;" cx="368.252" cy="111.728" r="111.728"/>
<path style="fill:#92C7D3;" d="M426.22,372.416c-1.12,0-42.648,0-42.648,0c0.744-8.272,1.24-14.104,1.256-18.888
	c0.128-42.672-28.36-82.664-70.032-91.84c-23.752-5.232-46.424-2.72-65.184,7.408c-22.888-34.064-60.808-57.72-104.272-60.376
	c-5.592-0.768-11.256-1.56-17.056-1.56C57.444,207.152,0.012,266.248,0.012,339.312c0,38.072,15.688,72.224,40.648,96.36
	c22.072,24.488,52.72,40.272,89.008,42.904c0,0,295.432,1.448,296.552,1.448c29.712,0,53.792-21.808,53.792-53.8
	C480.012,394.216,455.924,372.416,426.22,372.416z"/>
<g>
	<polygon style="fill:#FCE674;" points="76.564,149.592 91.572,180.008 125.14,184.88 100.852,208.552 106.588,241.984 
		76.564,226.2 46.54,241.984 52.276,208.552 27.988,184.88 61.556,180.008 	"/>
	<polygon style="fill:#FCE674;" points="192.428,0.624 207.436,31.04 241.004,35.92 216.716,59.592 222.444,93.016 192.428,77.24 
		162.404,93.016 168.14,59.592 143.852,35.92 177.412,31.04 	"/>
</g>
<g>
</g>
<g>
</g>
<g>
</g>
<g>
</g>
<g>
</g>
<g>
</g>
<g>
</g>
<g>
</g>
<g>
</g>
<g>
</g>
<g>
</g>
<g>
</g>
<g>
</g>
<g>
</g>
<g>
</g>
</svg>
