<?xml version="1.0" encoding="iso-8859-1"?>
<!-- Generator: Adobe Illustrator 19.0.0, SVG Export Plug-In . SVG Version: 6.00 Build 0)  -->
<svg version="1.1" id="Layer_1" xmlns="http://www.w3.org/2000/svg" xmlns:xlink="http://www.w3.org/1999/xlink" x="0px" y="0px"
	 viewBox="0 0 480.954 480.954" style="enable-background:new 0 0 480.954 480.954;" xml:space="preserve">
<g>
	<path style="fill:#EB805B;" d="M108.162,79.888h-21.44c-6.52-17.816-26.128-33.416-48.648-30.216
		C18.122,52.52,2.602,67.928,0.322,87.152c-1.488,12.576,2.216,24.6,10.44,33.84c8.408,9.464,20.744,14.896,33.824,14.896h63.576
		c16.392,0,28.792-11.624,28.792-27.08c0-0.04,0-0.088,0-0.128c0-0.016,0-0.04,0-0.056s0-0.04,0-0.056c0-0.04,0-0.088,0-0.128
		C136.954,92.672,124.026,79.888,108.162,79.888z"/>
	<path style="fill:#EB805B;" d="M396.114,31.888h-21.432c-6.52-17.896-26.016-33.568-48.656-30.416
		c-19.944,2.848-35.472,18.296-37.752,37.576c-1.496,12.608,2.224,24.656,10.472,33.936c8.424,9.472,20.736,14.904,33.792,14.904
		h63.576c16.32,0,28.84-11.608,28.84-27.072c0-0.08,0-0.16,0-0.24c0-0.032,0-0.072,0-0.104c0-0.04,0-0.072,0-0.112
		c0-0.08,0-0.168,0-0.24C424.954,44.512,411.898,31.888,396.114,31.888z"/>
</g>
<g>
	<path style="fill:#E66032;" d="M377.202,346.088c0-75.176-60.944-138.2-136.128-138.2s-136.12,64.056-136.12,139.24
		c0,6.144,0.552,12.888,1.336,21.2h269.568C376.65,360.016,377.202,352.232,377.202,346.088z"/>
	<path style="fill:#E66032;" d="M240.954,143.888c-4.424,0-8-3.576-8-8v-48c0-4.424,3.576-8,8-8c4.424,0,8,3.576,8,8v48
		C248.954,140.312,245.378,143.888,240.954,143.888z"/>
	<path style="fill:#E66032;" d="M240.954,191.888c-4.424,0-8-3.576-8-8v-16c0-4.424,3.576-8,8-8c4.424,0,8,3.576,8,8v16
		C248.954,188.312,245.378,191.888,240.954,191.888z"/>
	<path style="fill:#E66032;" d="M395.298,205.544c-2.048,0-4.096-0.784-5.656-2.344c-3.128-3.128-3.128-8.184,0-11.312
		l29.256-29.256c3.128-3.128,8.184-3.128,11.312,0s3.128,8.184,0,11.312L400.954,203.2
		C399.394,204.76,397.346,205.544,395.298,205.544z"/>
	<path style="fill:#E66032;" d="M361.354,239.488c-2.048,0-4.096-0.784-5.656-2.344c-3.128-3.128-3.128-8.184,0-11.312l11.32-11.32
		c3.128-3.128,8.184-3.128,11.312,0s3.128,8.184,0,11.312l-11.32,11.32C365.45,238.712,363.402,239.488,361.354,239.488z"/>
	<path style="fill:#E66032;" d="M472.954,327.888h-24c-4.424,0-8-3.576-8-8s3.576-8,8-8h24c4.424,0,8,3.576,8,8
		S477.378,327.888,472.954,327.888z"/>
	<path style="fill:#E66032;" d="M416.954,327.888h-16c-4.424,0-8-3.576-8-8s3.576-8,8-8h16c4.424,0,8,3.576,8,8
		S421.378,327.888,416.954,327.888z"/>
	<path style="fill:#E66032;" d="M32.954,327.888h-24c-4.424,0-8-3.576-8-8s3.576-8,8-8h24c4.424,0,8,3.576,8,8
		S37.378,327.888,32.954,327.888z"/>
	<path style="fill:#E66032;" d="M80.954,327.888h-16c-4.424,0-8-3.576-8-8s3.576-8,8-8h16c4.424,0,8,3.576,8,8
		S85.378,327.888,80.954,327.888z"/>
	<path style="fill:#E66032;" d="M102.61,205.544c-2.048,0-4.096-0.784-5.656-2.344l-29.256-29.256
		c-3.128-3.128-3.128-8.184,0-11.312s8.184-3.128,11.312,0l29.256,29.256c3.128,3.128,3.128,8.184,0,11.312
		C106.706,204.76,104.658,205.544,102.61,205.544z"/>
	<path style="fill:#E66032;" d="M136.554,239.488c-2.048,0-4.096-0.784-5.656-2.344l-11.32-11.32c-3.128-3.128-3.128-8.184,0-11.312
		s8.184-3.128,11.312,0l11.32,11.32c3.128,3.128,3.128,8.184,0,11.312C140.65,238.712,138.602,239.488,136.554,239.488z"/>
</g>
<g>
	<path style="fill:#AD4826;" d="M280.954,383.888h-272c-4.424,0-8-3.576-8-8s3.576-8,8-8h272c4.424,0,8,3.576,8,8
		S285.378,383.888,280.954,383.888z"/>
	<path style="fill:#AD4826;" d="M472.954,383.888h-144c-4.424,0-8-3.576-8-8s3.576-8,8-8h144c4.424,0,8,3.576,8,8
		S477.378,383.888,472.954,383.888z"/>
	<path style="fill:#AD4826;" d="M416.954,431.888h-208c-4.424,0-8-3.576-8-8s3.576-8,8-8h208c4.424,0,8,3.576,8,8
		S421.378,431.888,416.954,431.888z"/>
	<path style="fill:#AD4826;" d="M160.954,431.888h-80c-4.424,0-8-3.576-8-8s3.576-8,8-8h80c4.424,0,8,3.576,8,8
		S165.378,431.888,160.954,431.888z"/>
	<path style="fill:#AD4826;" d="M368.954,479.888h-56c-4.424,0-8-3.576-8-8s3.576-8,8-8h56c4.424,0,8,3.576,8,8
		S373.378,479.888,368.954,479.888z"/>
	<path style="fill:#AD4826;" d="M264.954,479.888h-144c-4.424,0-8-3.576-8-8s3.576-8,8-8h144c4.424,0,8,3.576,8,8
		S269.378,479.888,264.954,479.888z"/>
</g>
<g>
</g>
<g>
</g>
<g>
</g>
<g>
</g>
<g>
</g>
<g>
</g>
<g>
</g>
<g>
</g>
<g>
</g>
<g>
</g>
<g>
</g>
<g>
</g>
<g>
</g>
<g>
</g>
<g>
</g>
</svg>
