<?xml version="1.0" encoding="iso-8859-1"?>
<!-- Generator: Adobe Illustrator 19.0.0, SVG Export Plug-In . SVG Version: 6.00 Build 0)  -->
<svg version="1.1" id="Layer_1" xmlns="http://www.w3.org/2000/svg" xmlns:xlink="http://www.w3.org/1999/xlink" x="0px" y="0px"
	 viewBox="0 0 480 480" style="enable-background:new 0 0 480 480;" xml:space="preserve">
<path style="fill:#92C7D3;" d="M426.208,160.964c-1.12,0-42.648,0-42.648,0c0.744-8.16,1.24-9.968,1.256-14.744
	c0.128-42.672-28.36-80.592-70.032-89.776c-23.752-5.232-46.424-1.68-65.184,8.44c-22.888-34.064-60.808-57.2-104.272-59.856
	c-5.592-0.768-11.256-1.304-17.056-1.304C57.432,3.724,0,62.948,0,136.012c0,38.072,15.688,72.288,40.648,96.424
	c22.072,24.488,52.72,40.304,89.008,42.936c0,0,295.432,1.464,296.552,1.464c29.712,0,53.792-25.936,53.792-57.928
	C480,186.9,455.912,160.964,426.208,160.964z"/>
<g>
	<circle style="fill:#BEDDE5;" cx="56" cy="384.276" r="24"/>
	<circle style="fill:#BEDDE5;" cx="428" cy="416.276" r="24"/>
	<circle style="fill:#BEDDE5;" cx="200.96" cy="452.276" r="24"/>
	<circle style="fill:#BEDDE5;" cx="272.96" cy="332.276" r="24"/>
</g>
<g>
</g>
<g>
</g>
<g>
</g>
<g>
</g>
<g>
</g>
<g>
</g>
<g>
</g>
<g>
</g>
<g>
</g>
<g>
</g>
<g>
</g>
<g>
</g>
<g>
</g>
<g>
</g>
<g>
</g>
</svg>
