<?xml version="1.0" encoding="iso-8859-1"?>
<!-- Generator: Adobe Illustrator 19.0.0, SVG Export Plug-In . SVG Version: 6.00 Build 0)  -->
<svg version="1.1" id="Layer_1" xmlns="http://www.w3.org/2000/svg" xmlns:xlink="http://www.w3.org/1999/xlink" x="0px" y="0px"
	 viewBox="0 0 480 480" style="enable-background:new 0 0 480 480;" xml:space="preserve">
<path style="fill:#77B9C8;" d="M240,40c-4.416,0-8-3.576-8-8V8c0-4.424,3.584-8,8-8c4.416,0,8,3.576,8,8v24
	C248,36.424,244.416,40,240,40z"/>
<g>
	<path style="fill:#BEDDE5;" d="M8,328c-4.416,0-8-3.576-8-8v-24c0-4.424,3.584-8,8-8s8,3.576,8,8v24C16,324.424,12.416,328,8,328z"
		/>
	<path style="fill:#BEDDE5;" d="M56,408c-4.416,0-8-3.576-8-8v-24c0-4.424,3.584-8,8-8s8,3.576,8,8v24C64,404.424,60.416,408,56,408
		z"/>
	<path style="fill:#BEDDE5;" d="M104,312c-4.416,0-8-3.576-8-8v-24c0-4.424,3.584-8,8-8s8,3.576,8,8v24
		C112,308.424,108.416,312,104,312z"/>
	<path style="fill:#BEDDE5;" d="M136,456c-4.416,0-8-3.576-8-8v-24c0-4.424,3.584-8,8-8s8,3.576,8,8v24
		C144,452.424,140.416,456,136,456z"/>
	<path style="fill:#BEDDE5;" d="M184,360c-4.416,0-8-3.576-8-8v-24c0-4.424,3.584-8,8-8s8,3.576,8,8v24
		C192,356.424,188.416,360,184,360z"/>
	<path style="fill:#BEDDE5;" d="M296,440c-4.416,0-8-3.576-8-8v-24c0-4.424,3.584-8,8-8s8,3.576,8,8v24
		C304,436.424,300.416,440,296,440z"/>
	<path style="fill:#BEDDE5;" d="M344,360c-4.416,0-8-3.576-8-8v-24c0-4.424,3.584-8,8-8s8,3.576,8,8v24
		C352,356.424,348.416,360,344,360z"/>
	<path style="fill:#BEDDE5;" d="M392,456c-4.416,0-8-3.576-8-8v-24c0-4.424,3.584-8,8-8s8,3.576,8,8v24
		C400,452.424,396.416,456,392,456z"/>
	<path style="fill:#BEDDE5;" d="M424,312c-4.416,0-8-3.576-8-8v-24c0-4.424,3.584-8,8-8s8,3.576,8,8v24
		C432,308.424,428.416,312,424,312z"/>
	<path style="fill:#BEDDE5;" d="M472,408c-4.416,0-8-3.576-8-8v-24c0-4.424,3.584-8,8-8s8,3.576,8,8v24
		C480,404.424,476.416,408,472,408z"/>
</g>
<path style="fill:#77B9C8;" d="M240,240c-4.416,0-8,3.576-8,8v200c0,8.824-7.176,16-16,16s-16-7.176-16-16v-17.704
	c8.584-3.448,14.664-11.808,14.664-21.632c0-12.888-10.448-23.336-23.336-23.336S168,395.776,168,408.664
	c0,10.312,6.728,18.952,16,22.04V448c0,17.648,14.352,32,32,32s32-14.352,32-32V248C248,243.576,244.416,240,240,240z"/>
<path style="fill:#BEDDE5;" d="M239.928,22.568C182.504,23.384,136.144,122.264,136.144,256h215.56
	C351.704,122.264,301.776,23.384,239.928,22.568z"/>
<path style="fill:#77B9C8;" d="M239.2,22.272c-118.408,0-214.4,99.672-214.4,218.08c0,4.016,0.128,15.648,0.344,15.648h111
	c0-128.816,46.36-228.352,103.784-229.144c-0.248,0-0.488-2.184-0.728-2.184c0.248,0,0.488-1.04,0.728-1.04
	c0.224,0,0.448-0.576,0.68-0.576c-0.224,0-0.448,4.056-0.68,4.064C301.776,27.912,351.704,127.184,351.704,256h101.552
	c0.216,0,0.352-11.424,0.352-15.44C453.6,122.144,357.608,22.272,239.2,22.272z"/>
<path style="fill:#BEDDE5;" d="M436.432,112.784c0,29.824-13.4,35.216-29.936,35.216s-29.936-5.392-29.936-35.216
	S406.496,40,406.496,40S436.432,82.96,436.432,112.784z"/>
<g>
</g>
<g>
</g>
<g>
</g>
<g>
</g>
<g>
</g>
<g>
</g>
<g>
</g>
<g>
</g>
<g>
</g>
<g>
</g>
<g>
</g>
<g>
</g>
<g>
</g>
<g>
</g>
<g>
</g>
</svg>
