<svg width="32" height="32" viewBox="0 0 32 32" fill="none" xmlns="http://www.w3.org/2000/svg">
<path d="M22.7755 18.1645C27.7828 18.1645 31.8421 14.1052 31.8421 9.09785C31.8421 4.09047 27.7828 0.031189 22.7755 0.031189C17.7681 0.031189 13.7088 4.09047 13.7088 9.09785C13.7088 14.1052 17.7681 18.1645 22.7755 18.1645Z" fill="#FCE674"/>
<path d="M5.99948 31.9689C5.90935 31.9689 5.81761 31.946 5.73335 31.8974C5.47788 31.7502 5.39095 31.4238 5.53815 31.1689L7.40481 27.9358C7.55201 27.6809 7.87788 27.5923 8.13335 27.7406C8.38881 27.8878 8.47575 28.2142 8.32855 28.4691L6.46188 31.7022C6.36321 31.8734 6.18401 31.9689 5.99948 31.9689Z" fill="#92C7D3"/>
<path d="M9.19943 31.9689C9.1093 31.9689 9.01757 31.946 8.9333 31.8974C8.67783 31.7502 8.5909 31.4238 8.7381 31.1689L10.6048 27.9358C10.752 27.6809 11.0773 27.5923 11.3333 27.7406C11.5888 27.8878 11.6757 28.2142 11.5285 28.4691L9.66183 31.7022C9.56317 31.8734 9.38397 31.9689 9.19943 31.9689Z" fill="#92C7D3"/>
<path d="M12.3994 31.9689C12.3093 31.9689 12.2176 31.946 12.1333 31.8974C11.8778 31.7502 11.7909 31.4238 11.9381 31.1689L13.8048 27.9358C13.952 27.6809 14.2773 27.5923 14.5333 27.7406C14.7888 27.8878 14.8757 28.2142 14.7285 28.4691L12.8618 31.7022C12.7632 31.8734 12.584 31.9689 12.3994 31.9689Z" fill="#92C7D3"/>
<path d="M15.5995 31.9689C15.5093 31.9689 15.4176 31.946 15.3333 31.8974C15.0779 31.7502 14.9909 31.4238 15.1381 31.1689L17.0048 27.9358C17.152 27.6809 17.4778 27.5923 17.7333 27.7406C17.9888 27.8878 18.0757 28.2142 17.9285 28.4691L16.0618 31.7022C15.9632 31.8734 15.784 31.9689 15.5995 31.9689Z" fill="#92C7D3"/>
<path d="M18.7995 31.9689C18.7094 31.9689 18.6177 31.946 18.5334 31.8974C18.2779 31.7502 18.191 31.4238 18.3382 31.1689L20.2049 27.9358C20.3521 27.6809 20.6774 27.5923 20.9334 27.7406C21.1889 27.8878 21.2758 28.2142 21.1286 28.4691L19.2619 31.7022C19.1633 31.8734 18.9841 31.9689 18.7995 31.9689Z" fill="#92C7D3"/>
<path d="M21.9995 31.9689C21.9093 31.9689 21.8176 31.946 21.7333 31.8974C21.4779 31.7502 21.3909 31.4238 21.5381 31.1689L23.4048 27.9358C23.552 27.6809 23.8773 27.5923 24.1333 27.7406C24.3888 27.8878 24.4757 28.2142 24.3285 28.4691L22.4619 31.7022C22.3632 31.8734 22.184 31.9689 21.9995 31.9689Z" fill="#92C7D3"/>
<path d="M25.1995 31.9689C25.1094 31.9689 25.0176 31.946 24.9334 31.8974C24.6779 31.7502 24.591 31.4238 24.7382 31.1689L26.6048 27.9358C26.7526 27.6809 27.0779 27.5923 27.3334 27.7406C27.5888 27.8878 27.6758 28.2142 27.5286 28.4691L25.6619 31.7022C25.5632 31.8734 25.384 31.9689 25.1995 31.9689Z" fill="#92C7D3"/>
<path d="M28.4139 18.3523C28.3392 18.3523 25.5707 18.3523 25.5707 18.3523C25.6203 17.819 25.6533 17.7731 25.6544 17.4542C25.6629 14.6094 23.7637 12.124 20.9856 11.5118C19.4021 11.163 17.8907 11.4206 16.64 12.0958C15.1141 9.82482 12.5861 8.29309 9.68853 8.11602C9.31573 8.06482 8.93813 8.03442 8.55147 8.03442C3.8288 8.03442 0 11.9854 0 16.8558C0 19.3939 1.04587 21.676 2.70987 23.2851C4.18133 24.9176 6.22453 25.9725 8.64373 26.148C8.64373 26.148 28.3392 26.2456 28.4139 26.2456C30.3947 26.2456 32 24.4317 32 22.2984C32 20.1662 30.3941 18.3523 28.4139 18.3523Z" fill="#92C7D3"/>
<path d="M5.10403 6L6.10451 8.02764L8.34227 8.35242L6.72315 9.93048L7.10553 12.1592L5.10403 11.107L3.10252 12.1592L3.4849 9.93048L1.86578 8.35242L4.10354 8.02764L5.10403 6Z" fill="#FCE674"/>
<path d="M11.2382 0L12.2387 2.02763L14.4765 2.35295L12.8574 3.931L13.2392 6.15916L11.2382 5.10748L9.23674 6.15916L9.61912 3.931L8 2.35295L10.2372 2.02763L11.2382 0Z" fill="#FCE674"/>
</svg>
