<?xml version="1.0" encoding="iso-8859-1"?>
<!-- Generator: Adobe Illustrator 19.0.0, SVG Export Plug-In . SVG Version: 6.00 Build 0)  -->
<svg version="1.1" id="Layer_1" xmlns="http://www.w3.org/2000/svg" xmlns:xlink="http://www.w3.org/1999/xlink" x="0px" y="0px"
	 viewBox="0 0 484.168 484.168" style="enable-background:new 0 0 484.168 484.168;" xml:space="preserve">
<circle style="fill:#FCB641;" cx="356.416" cy="125.688" r="125.688"/>
<path style="fill:#E9F4F6;" d="M116.512,474.072c24.488-6.56,41.52-27.056,44.864-50.672
	c-14.704-18.776-39.704-28.016-64.192-21.448c-24.488,6.56-41.52,27.056-44.864,50.672C67.024,471.4,92.016,480.632,116.512,474.072
	z"/>
<path style="fill:#92C7D3;" d="M194.08,413.944c-1.144-4.272-5.528-6.816-9.8-5.656l-20.8,5.568
	c-17.392-18.544-43.504-26.32-68.376-19.64c-26.904,7.208-46.816,29.688-50.72,57.272c-0.304,2.16,0.28,4.344,1.624,6.056
	c13.368,17.08,33.576,26.624,54.56,26.624c5.984,0,12.032-0.776,18-2.376c25.368-6.8,44.336-27.232,49.712-52.664l20.128-5.392
	C192.688,422.6,195.224,418.208,194.08,413.944z M114.44,466.344c-19.592,5.232-40.248-1.024-53.608-16.008
	c4.08-19.656,18.84-35.416,38.424-40.664c16.184-4.32,33.024-0.704,45.944,9.088l-54.752,14.672c-4.264,1.144-6.8,5.528-5.656,9.8
	c0.952,3.576,4.184,5.928,7.72,5.928c0.688,0,1.384-0.088,2.08-0.272l55.792-14.944C144.336,449.656,131.176,461.856,114.44,466.344
	z"/>
<path style="fill:#E9F4F6;" d="M330.16,426.072c-24.488-6.56-41.52-27.056-44.864-50.672C300,356.624,325,347.384,349.488,353.952
	c24.488,6.56,41.52,27.056,44.864,50.672C379.648,423.4,354.656,432.632,330.16,426.072z"/>
<g>
	<path style="fill:#92C7D3;" d="M351.56,346.216c-24.864-6.68-50.976,1.112-68.368,19.64l-20.808-5.576
		c-4.24-1.144-8.656,1.4-9.8,5.656c-1.144,4.264,1.392,8.656,5.656,9.8l20.136,5.392c5.384,25.424,24.344,45.864,49.712,52.664
		c5.968,1.6,12.008,2.376,17.992,2.376c20.984,0,41.192-9.544,54.56-26.624c1.344-1.712,1.928-3.896,1.624-6.056
		C398.368,375.904,378.464,353.432,351.56,346.216z M332.24,418.344c-16.736-4.488-29.896-16.688-35.928-32.408l55.784,14.944
		c0.696,0.184,1.392,0.272,2.08,0.272c3.528,0,6.768-2.36,7.72-5.928c1.144-4.264-1.392-8.656-5.656-9.8l-54.752-14.664
		c12.928-9.792,29.784-13.408,45.928-9.088c19.576,5.248,34.344,21.008,38.424,40.664C372.48,417.32,351.84,423.584,332.24,418.344z
		"/>
	<path style="fill:#92C7D3;" d="M429.064,209.664c-1.128,0-42.824,0-42.824,0c0.744-8.192,1.24-10.008,1.256-14.808
		c0.128-42.848-28.472-80.92-70.32-90.144c-23.848-5.256-46.616-1.688-65.456,8.472c-22.976-34.208-61.064-57.432-104.696-60.104
		c-5.616-0.768-11.304-1.312-17.128-1.312c-71.136,0-128.8,59.472-128.8,132.824c0,38.224,15.752,72.584,40.816,96.816
		c22.16,24.584,52.936,40.464,89.368,43.112c0,0,296.648,1.472,297.776,1.472c29.832,0,54.016-26.04,54.016-58.168
		C483.08,235.704,458.896,209.664,429.064,209.664z"/>
</g>
<g>
</g>
<g>
</g>
<g>
</g>
<g>
</g>
<g>
</g>
<g>
</g>
<g>
</g>
<g>
</g>
<g>
</g>
<g>
</g>
<g>
</g>
<g>
</g>
<g>
</g>
<g>
</g>
<g>
</g>
</svg>
