<svg width="32" height="32" viewBox="0 0 32 32" fill="none" xmlns="http://www.w3.org/2000/svg">
<g clip-path="url(#clip0)">
<path d="M7.23829 20L8.23879 22.0277L10.4766 22.353L8.85744 23.9311L9.23983 26.1598L7.23829 25.1076L5.23676 26.1598L5.61915 23.9311L4 22.353L6.23779 22.0277L7.23829 20Z" fill="#FCE674"/>
<path d="M19.2383 26L20.2388 28.0277L22.4766 28.353L20.8574 29.9311L21.2398 32.1598L19.2383 31.1076L17.2368 32.1598L17.6191 29.9311L16 28.353L18.2378 28.0277L19.2383 26Z" fill="#FCE674"/>
<path d="M16.2383 10L17.2393 12.0277L19.4771 12.353L17.858 13.9316L18.2398 16.1598L16.2383 15.1076L14.2373 16.1598L14.6191 13.9316L13 12.353L15.2378 12.0277L16.2383 10Z" fill="#FCE674"/>
<path d="M24.1992 10C24.8845 11.1472 25.2861 12.4842 25.2861 13.9177C25.2861 18.1469 21.8574 21.5756 17.6282 21.5756C17.6186 21.5756 17.6096 21.574 17.6 21.574C18.937 23.8118 21.3753 25.3147 24.1715 25.3147C28.4007 25.3147 31.8294 21.886 31.8294 17.6568C31.8294 13.4367 28.4156 10.0155 24.1992 10Z" fill="#FCE674"/>
<path d="M5.10328 9.95166L6.10378 11.9793L8.34157 12.3046L6.72243 13.8827L7.10482 16.1114L5.10328 15.0592L3.10175 16.1114L3.48414 13.8827L1.86499 12.3046L4.10278 11.9793L5.10328 9.95166Z" fill="#FCE674"/>
<path d="M12.8273 0.0202637L13.8283 2.04793L16.0661 2.37325L14.447 3.95187L14.8288 6.18006L12.8273 5.12783L10.8263 6.18006L11.2081 3.95187L9.58899 2.37325L11.8268 2.04793L12.8273 0.0202637Z" fill="#FCE674"/>
</g>
<defs>
<clipPath id="clip0">
<rect width="32" height="32" fill="white"/>
</clipPath>
</defs>
</svg>
