<?xml version="1.0" encoding="iso-8859-1"?>
<!-- Generator: Adobe Illustrator 19.0.0, SVG Export Plug-In . SVG Version: 6.00 Build 0)  -->
<svg version="1.1" id="Layer_1" xmlns="http://www.w3.org/2000/svg" xmlns:xlink="http://www.w3.org/1999/xlink" x="0px" y="0px"
	 viewBox="0 0 480 480" style="enable-background:new 0 0 480 480;" xml:space="preserve">
<path style="fill:#92C7D3;" d="M426.208,158.964c-1.12,0-42.648,0-42.648,0c0.744-8.16,1.24-9.968,1.256-14.744
	c0.128-42.672-28.36-80.592-70.032-89.776c-23.752-5.232-46.424-1.68-65.184,8.44c-22.888-34.064-60.808-57.2-104.272-59.856
	c-5.592-0.768-11.256-1.304-17.056-1.304C57.432,1.724,0,60.948,0,134.012c0,38.072,15.688,72.288,40.648,96.424
	c22.072,24.488,52.72,40.304,89.008,42.936c0,0,295.432,1.464,296.552,1.464c29.712,0,53.792-25.936,53.792-57.928
	C480,184.9,455.912,158.964,426.208,158.964z"/>
<g>
	<circle style="fill:#BEDDE5;" cx="63.064" cy="325.34" r="24.936"/>
	<circle style="fill:#BEDDE5;" cx="432.96" cy="335.236" r="24.936"/>
	<circle style="fill:#BEDDE5;" cx="207.064" cy="453.34" r="24.936"/>
	<path style="fill:#BEDDE5;" d="M272,334.276h-12.688l8.976-8.976c3.128-3.128,3.128-8.184,0-11.312s-8.184-3.128-11.312,0
		L248,322.964v-12.688c0-4.416-3.584-8-8-8s-8,3.584-8,8v12.688l-8.976-8.976c-3.128-3.128-8.184-3.128-11.312,0
		s-3.128,8.184,0,11.312l8.976,8.976H208c-4.416,0-8,3.584-8,8s3.584,8,8,8h12.688l-8.976,8.976c-3.128,3.128-3.128,8.184,0,11.312
		c1.56,1.56,3.608,2.344,5.656,2.344s4.096-0.784,5.656-2.344l8.976-8.976v12.688c0,4.416,3.584,8,8,8c4.416,0,8-3.584,8-8v-12.688
		l8.976,8.976c1.56,1.56,3.608,2.344,5.656,2.344s4.096-0.784,5.656-2.344c3.128-3.128,3.128-8.184,0-11.312l-8.976-8.976H272
		c4.416,0,8-3.584,8-8S276.416,334.276,272,334.276z"/>
	<path style="fill:#BEDDE5;" d="M416,422.276h-12.688l8.976-8.976c3.128-3.128,3.128-8.184,0-11.312s-8.184-3.128-11.312,0
		L392,410.964v-12.688c0-4.416-3.584-8-8-8s-8,3.584-8,8v12.688l-8.976-8.976c-3.128-3.128-8.184-3.128-11.312,0
		s-3.128,8.184,0,11.312l8.976,8.976H352c-4.416,0-8,3.584-8,8s3.584,8,8,8h12.688l-8.976,8.976c-3.128,3.128-3.128,8.184,0,11.312
		c1.56,1.56,3.608,2.344,5.656,2.344s4.096-0.784,5.656-2.344l8.976-8.976v12.688c0,4.416,3.584,8,8,8s8-3.584,8-8v-12.688
		l8.976,8.976c1.56,1.56,3.608,2.344,5.656,2.344s4.096-0.784,5.656-2.344c3.128-3.128,3.128-8.184,0-11.312l-8.976-8.976H416
		c4.416,0,8-3.584,8-8S420.416,422.276,416,422.276z"/>
	<path style="fill:#BEDDE5;" d="M72,430.276H59.312l8.976-8.976c3.128-3.128,3.128-8.184,0-11.312s-8.184-3.128-11.312,0L48,418.964
		v-12.688c0-4.416-3.584-8-8-8s-8,3.584-8,8v12.688l-8.976-8.976c-3.128-3.128-8.184-3.128-11.312,0s-3.128,8.184,0,11.312
		l8.976,8.976H8c-4.416,0-8,3.584-8,8s3.584,8,8,8h12.688l-8.976,8.976c-3.128,3.128-3.128,8.184,0,11.312
		c1.56,1.56,3.608,2.344,5.656,2.344s4.096-0.784,5.656-2.344L32,457.588v12.688c0,4.416,3.584,8,8,8s8-3.584,8-8v-12.688
		l8.976,8.976c1.56,1.56,3.608,2.344,5.656,2.344s4.096-0.784,5.656-2.344c3.128-3.128,3.128-8.184,0-11.312l-8.976-8.976H72
		c4.416,0,8-3.584,8-8S76.416,430.276,72,430.276z"/>
</g>
<g>
</g>
<g>
</g>
<g>
</g>
<g>
</g>
<g>
</g>
<g>
</g>
<g>
</g>
<g>
</g>
<g>
</g>
<g>
</g>
<g>
</g>
<g>
</g>
<g>
</g>
<g>
</g>
<g>
</g>
</svg>
