<svg width="32" height="32" viewBox="0 0 32 32" fill="none" xmlns="http://www.w3.org/2000/svg">
<path d="M31.36 12H0.64C0.28672 12 0 11.7765 0 11.5C0 11.2235 0.28672 11 0.64 11H31.36C31.7139 11 32 11.2235 32 11.5C32 11.7765 31.7139 12 31.36 12Z" fill="#92C7D3"/>
<path d="M11.7333 9.01528H0.533333C0.238933 9.01528 0 8.77688 0 8.48195C0 8.18701 0.238933 7.94861 0.533333 7.94861H11.7333C12.0277 7.94861 12.2667 8.18701 12.2667 8.48195C12.2667 8.77688 12.0277 9.01528 11.7333 9.01528Z" fill="#92C7D3"/>
<path d="M11.3684 3H0.631579C0.282947 3 0 2.7765 0 2.5C0 2.2235 0.282947 2 0.631579 2H11.3684C11.7171 2 12 2.2235 12 2.5C12 2.7765 11.7171 3 11.3684 3Z" fill="#92C7D3"/>
<path d="M30.6154 3H15.3846C14.6189 3 14 2.7765 14 2.5C14 2.2235 14.6189 2 15.3846 2H30.6154C31.3811 2 32 2.2235 32 2.5C32 2.7765 31.3811 3 30.6154 3Z" fill="#92C7D3"/>
<path d="M20.7778 6.2514H1.22222C0.547556 6.2514 0 6.0279 0 5.7514C0 5.4749 0.547556 5.2514 1.22222 5.2514H20.7778C21.4524 5.2514 22 5.4749 22 5.7514C22 6.0279 21.4524 6.2514 20.7778 6.2514Z" fill="#92C7D3"/>
<path d="M31.2609 9H15.7391C15.3304 9 15 8.7765 15 8.5C15 8.2235 15.3304 8 15.7391 8H31.2609C31.6696 8 32 8.2235 32 8.5C32 8.7765 31.6696 9 31.2609 9Z" fill="#92C7D3"/>
<path d="M11.7333 17.0667H0.533333C0.238933 17.0667 0 16.8283 0 16.5333C0 16.2384 0.238933 16 0.533333 16H11.7333C12.0277 16 12.2667 16.2384 12.2667 16.5333C12.2667 16.8283 12.0277 17.0667 11.7333 17.0667Z" fill="#92C7D3"/>
<path d="M31.2609 17.0514H15.7391C15.3304 17.0514 15 16.8279 15 16.5514C15 16.2749 15.3304 16.0514 15.7391 16.0514H31.2609C31.6696 16.0514 32 16.2749 32 16.5514C32 16.8279 31.6696 17.0514 31.2609 17.0514Z" fill="#92C7D3"/>
<path d="M31.4667 6.06667H25.0667C24.7717 6.06667 24.5333 5.82827 24.5333 5.53333C24.5333 5.2384 24.7717 5 25.0667 5H31.4667C31.7616 5 32 5.2384 32 5.53333C32 5.82827 31.7616 6.06667 31.4667 6.06667Z" fill="#92C7D3"/>
<path d="M30.72 15H1.28C0.57344 15 0 14.7765 0 14.5C0 14.2235 0.57344 14 1.28 14H30.72C31.4278 14 32 14.2235 32 14.5C32 14.7765 31.4278 15 30.72 15Z" fill="#92C7D3"/>
<path d="M30.3158 19H1.68421C0.754526 19 0 18.7765 0 18.5C0 18.2235 0.754526 18 1.68421 18H30.3158C31.2472 18 32 18.2235 32 18.5C32 18.7765 31.2472 19 30.3158 19Z" fill="#92C7D3"/>
<path d="M30.7692 22H1.23077C0.551385 22 0 21.7765 0 21.5C0 21.2235 0.551385 21 1.23077 21H30.7692C31.4498 21 32 21.2235 32 21.5C32 21.7765 31.4498 22 30.7692 22Z" fill="#92C7D3"/>
<path d="M30.1176 25H1.88235C0.843294 25 0 24.7765 0 24.5C0 24.2235 0.843294 24 1.88235 24H30.1176C31.1586 24 32 24.2235 32 24.5C32 24.7765 31.1586 25 30.1176 25Z" fill="#92C7D3"/>
<path d="M28.8 28H3.2C1.4336 28 0 27.7765 0 27.5C0 27.2235 1.4336 27 3.2 27H28.8C30.5696 27 32 27.2235 32 27.5C32 27.7765 30.5696 28 28.8 28Z" fill="#92C7D3"/>
<path d="M26.6667 31H5.33333C2.38933 31 0 30.7765 0 30.5C0 30.2235 2.38933 30 5.33333 30H26.6667C29.616 30 32 30.2235 32 30.5C32 30.7765 29.616 31 26.6667 31Z" fill="#92C7D3"/>
</svg>
