<svg width="24" height="24" viewBox="0 0 24 24" fill="none" xmlns="http://www.w3.org/2000/svg">
<g clip-path="url(#clip0)">
<path d="M19.4483 16.2856C19.4483 20.546 16.1135 24 12 24C7.88655 24 4.55176 20.546 4.55176 16.2856C4.55176 12.0253 12 0 12 0C12 0 19.4483 12.0253 19.4483 16.2856Z" fill="#77B9C8"/>
<path d="M9.93094 20.2759C9.77597 20.2757 9.63414 20.189 9.56342 20.0514C9.4925 19.9136 9.50462 19.7477 9.59454 19.6216L13.7325 13.8285C13.8652 13.6424 14.1236 13.5994 14.3097 13.7322C14.4958 13.8649 14.5388 14.1233 14.4061 14.3094L10.2682 20.1025C10.1904 20.2114 10.0647 20.2761 9.93094 20.2759Z" fill="white"/>
<path d="M9.93108 16.9655C9.23502 16.9655 8.6897 16.2385 8.6897 15.3103C8.6897 14.3821 9.23502 13.6552 9.93108 13.6552C10.6271 13.6552 11.1725 14.3821 11.1725 15.3103C11.1725 16.2385 10.6271 16.9655 9.93108 16.9655ZM9.93108 14.4828C9.76216 14.4828 9.51728 14.805 9.51728 15.3103C9.51728 15.8157 9.76216 16.1379 9.93108 16.1379C10.1 16.1379 10.3449 15.8157 10.3449 15.3103C10.3449 14.805 10.1 14.4828 9.93108 14.4828Z" fill="white"/>
<path d="M14.069 20.2759C13.373 20.2759 12.8276 19.5489 12.8276 18.6207C12.8276 17.6925 13.373 16.9655 14.069 16.9655C14.7651 16.9655 15.3104 17.6925 15.3104 18.6207C15.3104 19.5489 14.7651 20.2759 14.069 20.2759ZM14.069 17.7931C13.9001 17.7931 13.6552 18.1154 13.6552 18.6207C13.6552 19.126 13.9001 19.4483 14.069 19.4483C14.2379 19.4483 14.4828 19.126 14.4828 18.6207C14.4828 18.1154 14.2379 17.7931 14.069 17.7931Z" fill="white"/>
</g>
<defs>
<clipPath id="clip0">
<rect width="24" height="24" fill="white"/>
</clipPath>
</defs>
</svg>
