<svg width="24" height="24" viewBox="0 0 24 24" fill="none" xmlns="http://www.w3.org/2000/svg">
<g clip-path="url(#clip0)">
<path d="M11.9603 2.06151C6.49344 2.06151 2.06152 6.49327 2.06152 11.9601C2.06152 17.427 6.49344 21.8589 11.9603 21.8589C17.4272 21.8589 21.859 17.427 21.859 11.9601C21.8486 6.49739 17.4231 2.07182 11.9603 2.06151Z" fill="white"/>
<path d="M18.6608 19.2431C14.8728 22.7296 9.04483 22.7296 5.25684 19.2431C9.04483 15.7569 14.8728 15.7569 18.6608 19.2431Z" fill="#77B9C8"/>
<path d="M12.7729 13.3686C12.1138 13.9774 11.0019 13.5513 10.5518 12.7729C10.1018 11.9946 10.287 10.8191 11.1475 10.5517L18.1525 8.38615L12.7729 13.3686Z" fill="#77B9C8"/>
<path d="M11.9602 -0.0406189C5.33244 -0.0406189 -0.0405273 5.33235 -0.0405273 11.9602C-0.0405273 18.588 5.33244 23.9609 11.9602 23.9609C18.5881 23.9609 23.961 18.588 23.961 11.9602C23.9494 5.33711 18.5833 -0.0290382 11.9602 -0.0406189ZM11.9602 21.8563C6.65375 21.8453 2.29576 17.6593 2.07208 12.3572H3.13116C3.35024 12.3572 3.52823 12.1794 3.52823 11.9602C3.52823 11.7409 3.3504 11.5631 3.13116 11.5631H2.07208C2.12982 10.0955 2.51627 8.65981 3.20254 7.36151L4.12916 7.89105C4.31921 8.00067 4.56224 7.93547 4.67186 7.74542C4.78148 7.55537 4.71644 7.31233 4.52623 7.20271L3.60501 6.67317C4.38806 5.438 5.4327 4.38955 6.66549 3.60222L7.19487 4.52344C7.30449 4.71349 7.54752 4.7787 7.73758 4.66908C7.92778 4.55945 7.99283 4.31642 7.88321 4.12637L7.35367 3.20515C8.65419 2.51681 10.0927 2.12941 11.5632 2.07199V3.13106C11.5557 3.35015 11.7275 3.53385 11.9468 3.54115C11.9512 3.54131 11.9556 3.54131 11.9602 3.54131C12.1793 3.54131 12.3573 3.36347 12.3573 3.14423V2.08531C13.8247 2.1429 15.2604 2.5295 16.5587 3.21578L16.0294 4.14239C15.9197 4.33244 15.9848 4.57548 16.1748 4.6851C16.365 4.79472 16.6081 4.72952 16.7177 4.53947L17.2471 3.61809C18.4811 4.39733 19.5293 5.43753 20.3182 6.6654L19.3968 7.19478C19.2067 7.3044 19.1415 7.54743 19.2512 7.73748C19.3608 7.92769 19.6038 7.99273 19.7939 7.88311L20.7153 7.35373C21.4015 8.65188 21.788 10.0877 21.8457 11.5551H20.7868C20.5676 11.5551 20.3896 11.733 20.3896 11.9522C20.3896 12.1715 20.5676 12.3495 20.7868 12.3495H21.8457C21.6276 17.6542 17.2696 21.8464 11.9602 21.8588V21.8563Z" fill="#77B9C8"/>
<path d="M12.8073 11.9602C12.8073 12.428 12.428 12.8073 11.9602 12.8073C11.4923 12.8073 11.113 12.428 11.113 11.9602C11.113 11.4923 11.4923 11.113 11.9602 11.113C12.428 11.113 12.8073 11.4923 12.8073 11.9602Z" fill="white"/>
</g>
<defs>
<clipPath id="clip0">
<rect width="24" height="24" fill="white"/>
</clipPath>
</defs>
</svg>
