<svg width="12" height="12" viewBox="0 0 12 12" fill="none" xmlns="http://www.w3.org/2000/svg">
<g clip-path="url(#clip0)">
<path d="M10.4251 1.94887C9.32827 0.751125 7.7514 0 5.99902 0C2.68515 0 -0.000976562 2.68613 -0.000976562 6H1.12402C1.12402 3.3075 3.30652 1.125 5.99902 1.125C7.44052 1.125 8.73577 1.75087 9.62827 2.74575L7.87402 4.5H11.999V0.375L10.4248 1.94887H10.4251Z" fill="#212B5A"/>
<path d="M10.875 6C10.875 8.6925 8.6925 10.875 6 10.875C4.5585 10.875 3.26325 10.2491 2.37075 9.25425L4.125 7.5H0V11.625L1.57387 10.0511C2.67075 11.2489 4.24762 12 6 12C9.31388 12 12 9.31387 12 6H10.875Z" fill="#212B5A"/>
</g>
<defs>
<clipPath id="clip0">
<rect width="12" height="12" fill="white"/>
</clipPath>
</defs>
</svg>
