<svg width="24" height="24" viewBox="0 0 24 24" fill="none" xmlns="http://www.w3.org/2000/svg">
<path d="M20.5712 6C18.6803 6 17.1427 7.53809 17.1427 9.42857C17.1427 9.90193 17.526 10.2857 17.9998 10.2857C18.4736 10.2857 18.8569 9.90193 18.8569 9.42857C18.8569 8.48309 19.6262 7.71429 20.5712 7.71429C21.5163 7.71429 22.2855 8.48309 22.2855 9.42857C22.2855 10.3741 21.5163 11.1429 20.5712 11.1429H0.92477C0.450984 11.1429 0.067627 11.5266 0.067627 12C0.067627 12.4734 0.450984 12.8571 0.92477 12.8571H20.5712C22.4621 12.8571 23.9998 11.3191 23.9998 9.42857C23.9998 7.53809 22.4621 6 20.5712 6Z" fill="#77B9C8"/>
<path d="M0.857143 9.42857H12C13.8909 9.42857 15.4286 7.89048 15.4286 6C15.4286 4.10952 13.8909 2.57143 12 2.57143C10.1091 2.57143 8.57143 4.10952 8.57143 6C8.57143 6.47336 8.95479 6.85714 9.42857 6.85714C9.90236 6.85714 10.2857 6.47336 10.2857 6C10.2857 5.05452 11.0549 4.28571 12 4.28571C12.9451 4.28571 13.7143 5.05452 13.7143 6C13.7143 6.94548 12.9451 7.71428 12 7.71428H0.857143C0.383357 7.71428 0 8.09807 0 8.57143C0 9.04478 0.383357 9.42857 0.857143 9.42857Z" fill="#77B9C8"/>
<path d="M12 14.5714H0.857143C0.383357 14.5714 0 14.9552 0 15.4286C0 15.9019 0.383357 16.2857 0.857143 16.2857H12C12.9451 16.2857 13.7143 17.0545 13.7143 18C13.7143 18.9455 12.9451 19.7143 12 19.7143C11.0549 19.7143 10.2857 18.9455 10.2857 18C10.2857 17.5266 9.90236 17.1429 9.42857 17.1429C8.95479 17.1429 8.57143 17.5266 8.57143 18C8.57143 19.8905 10.1091 21.4286 12 21.4286C13.8909 21.4286 15.4286 19.8905 15.4286 18C15.4286 16.1095 13.8909 14.5714 12 14.5714Z" fill="#77B9C8"/>
</svg>
